<?xml version="1.0" standalone="no"?>
<!DOCTYPE svg PUBLIC "-//W3C//DTD SVG 20010904//EN"
 "http://www.w3.org/TR/2001/REC-SVG-20010904/DTD/svg10.dtd">
<svg version="1.0" xmlns="http://www.w3.org/2000/svg"
 width="900.000000pt" height="800.000000pt" viewBox="0 0 900.000000 800.000000"
 preserveAspectRatio="xMidYMid meet">

<g transform="translate(0.000000,800.000000) scale(0.100000,-0.100000)"
fill="#000000" stroke="none">
<path d="M2720 7189 c-283 -24 -517 -82 -750 -187 -305 -136 -535 -322 -696
-563 -124 -185 -192 -377 -223 -629 -16 -129 -1 -944 24 -1300 3 -36 7 -105
10 -155 3 -49 7 -110 10 -135 4 -41 7 -70 19 -215 3 -27 7 -86 11 -130 3 -44
8 -93 10 -110 2 -16 7 -77 10 -135 4 -58 8 -121 10 -140 2 -19 7 -96 10 -170
4 -74 8 -157 10 -185 3 -27 7 -205 10 -395 7 -448 13 -678 20 -715 40 -225 80
-351 165 -513 148 -282 385 -495 711 -639 141 -62 336 -117 489 -139 25 -3 52
-7 60 -9 56 -10 276 -16 755 -20 525 -4 1059 -13 1155 -21 130 -10 1712 -13
1775 -3 509 76 844 260 1105 604 90 120 181 316 230 495 47 174 51 233 60 909
8 574 21 1011 35 1171 3 30 7 114 10 185 3 72 7 150 10 175 5 51 12 179 20
360 3 69 8 154 10 190 3 36 12 260 20 498 16 433 13 556 -16 698 -5 28 -12 64
-15 80 -3 16 -19 70 -36 119 -182 533 -635 885 -1288 999 -47 8 -103 18 -125
22 -56 11 -3498 13 -3615 3z m2050 -755 c979 -133 1778 -825 2049 -1775 104
-364 120 -794 45 -1159 -157 -755 -648 -1389 -1339 -1725 -82 -41 -193 -88
-246 -106 -91 -30 -99 -31 -140 -18 -29 10 -51 25 -66 48 l-23 34 0 408 c0
447 -4 493 -59 612 -15 35 -45 83 -66 106 -21 23 -36 43 -34 45 2 2 54 11 114
20 661 104 974 448 1002 1101 12 283 -47 492 -193 684 l-54 71 22 77 c17 62
21 104 21 203 -1 127 -7 168 -45 298 l-21 72 -57 0 c-124 0 -312 -69 -510
-189 l-113 -68 -93 23 c-220 53 -551 72 -779 45 -108 -13 -295 -48 -332 -62
-19 -7 -36 0 -91 35 -211 136 -417 216 -556 216 l-53 0 -22 -65 c-59 -182 -66
-404 -15 -547 l14 -40 -51 -61 c-63 -78 -143 -238 -170 -342 -27 -102 -37
-342 -20 -483 70 -568 376 -870 981 -967 63 -11 117 -20 118 -21 2 -1 -15 -27
-37 -57 -44 -58 -85 -147 -96 -212 -12 -62 -21 -72 -87 -94 -145 -47 -253 -50
-372 -10 -110 37 -186 104 -280 244 -32 46 -80 105 -108 130 -111 99 -281 148
-357 101 -33 -21 4 -66 128 -159 71 -52 135 -136 187 -247 25 -52 55 -115 67
-139 12 -25 50 -75 85 -112 113 -121 264 -179 466 -179 61 1 141 7 178 14 37
7 70 10 73 8 3 -3 5 -106 5 -228 -1 -260 -6 -276 -85 -309 l-47 -19 -96 33
c-405 138 -810 425 -1094 776 -286 354 -481 828 -529 1284 -17 162 -6 534 19
671 98 528 324 963 692 1330 488 489 1135 746 1820 723 80 -2 192 -11 250 -19z"/>
</g>
</svg>
